<?xml version="1.0" encoding="UTF-8" standalone="no"?>
<!-- Created with Inkscape (http://www.inkscape.org/) -->

<svg
   xmlns:dc="http://purl.org/dc/elements/1.1/"
   xmlns:cc="http://creativecommons.org/ns#"
   xmlns:rdf="http://www.w3.org/1999/02/22-rdf-syntax-ns#"
   xmlns:svg="http://www.w3.org/2000/svg"
   xmlns="http://www.w3.org/2000/svg"
   xmlns:sodipodi="http://sodipodi.sourceforge.net/DTD/sodipodi-0.dtd"
   xmlns:inkscape="http://www.inkscape.org/namespaces/inkscape"
   id="svg7384"
   height="16"
   width="16"
   version="1.1"
   inkscape:version="0.48.5 r10040"
   sodipodi:docname="my-touchpad-disabled-dark.svg">
  <defs
     id="defs10">
    <filter
       inkscape:label="Invert"
       x="0"
       y="0"
       width="1"
       height="1"
       inkscape:menu="Color"
       inkscape:menu-tooltip="Invert colors"
       color-interpolation-filters="sRGB"
       id="filter3022">
      <feColorMatrix
         type="saturate"
         values="1"
         result="fbSourceGraphic"
         id="feColorMatrix3024" />
      <feColorMatrix
         in="fbSourceGraphic"
         values="-1 0 0 0 1 0 -1 0 0 1 0 0 -1 0 1 0 0 0 1 0 "
         id="feColorMatrix3026" />
    </filter>
  </defs>
  <sodipodi:namedview
     pagecolor="#ffffff"
     bordercolor="#666666"
     borderopacity="1"
     objecttolerance="10"
     gridtolerance="10"
     guidetolerance="10"
     inkscape:pageopacity="0"
     inkscape:pageshadow="2"
     inkscape:window-width="1280"
     inkscape:window-height="741"
     id="namedview8"
     showgrid="false"
     inkscape:zoom="14.75"
     inkscape:cx="-3.6271186"
     inkscape:cy="8"
     inkscape:window-x="0"
     inkscape:window-y="26"
     inkscape:window-maximized="1"
     inkscape:current-layer="svg7384" />
  <metadata
     id="metadata90">
    <rdf:RDF>
      <cc:Work
         rdf:about="">
        <dc:format>image/svg+xml</dc:format>
        <dc:type
           rdf:resource="http://purl.org/dc/dcmitype/StillImage" />
        <dc:title>Gnome Symbolic Icon Theme</dc:title>
      </cc:Work>
    </rdf:RDF>
  </metadata>
  <title
     id="title9167">Gnome Symbolic Icon Theme</title>
  <g
     id="layer9"
     transform="translate(-121,-318)"
     style="filter:url(#filter3022);fill:#333333">
    <path
       id="rect5837-1"
       style="opacity:0.34999999999999998;block-progression:tb;text-indent:0;color:#bebebe;text-transform:none;fill:#333333"
       d="m124.03 318c-1.6692 0-3.0312 1.3621-3.0312 3.0312v7.9375c0 1.6692 1.3621 3.0312 3.0312 3.0312h6.9688v-2h-2v-2h7v-6.9688c0-1.6692-1.3621-3.0312-3.0312-3.0312zm0 2h8.9375c0.59578 0 1.0312 0.43547 1.0312 1.0312v5.9688h-11v-5.9688c0-0.59578 0.43547-1.0312 1.0312-1.0312zm-1.0312 8h5v2h-3.9688c-0.59578 0-1.0312-0.43547-1.0312-1.0312z" />
    <path
       id="path3761-2-3-5-4-8-9-8-0-9-3"
       style="color:#bebebe;fill:#333333"
       d="m132 329h1.375l1.125 1.0938 1.0938-1.0938h1.4062v1.4688l-1.0938 1.0625 1.0938 1.0625v1.4062h-1.4375l-1.0625-1.0625-1.0625 1.0625h-1.4375v-1.4062l1.0625-1.0625-1.0625-1.0625v-1.4688z" />
  </g>
  <path
     style="fill:#333333"
     d="M 2.6711864,13.927934 C 1.4381787,13.737297 0.48683015,12.92769 0.15875483,11.789831 0.01728511,11.299173 0.01377732,2.7401738 0.15483706,2.2305085 0.40865026,1.3134517 1.1780357,0.50368885 2.1006398,0.18258996 2.4003587,0.07827716 2.9149302,0.06435141 7.2135593,0.04421998 10.198786,0.0302395 12.157672,0.04743022 12.431254,0.09000923 c 0.968507,0.15073371 1.793998,0.77768528 2.232267,1.69538427 l 0.244954,0.5129116 0.01909,3.8474576 0.01909,3.8474576 -3.493665,0 -3.493665,0 0,1.0169487 0,1.01695 1.0169492,0 1.0169491,0 0,0.98305 0,0.983051 -3.5084745,-0.0091 c -1.9296611,-0.005 -3.6457627,-0.03028 -3.8135594,-0.05623 z m 4.3389831,-2.917765 0,-1.0169487 -2.5084746,0 -2.5084746,0 0,0.6679407 c 0,0.581562 0.019902,0.697731 0.1538938,0.898305 0.3036404,0.454522 0.3794085,0.46743 2.7444113,0.467548 l 2.1186441,1.05e-4 0,-1.01695 z M 13.044068,5.9397892 c 0,-3.0844243 -9.76e-4,-3.1062135 -0.152543,-3.4067797 C 12.604149,1.9631239 12.907721,1.9934111 7.4847458,1.9935791 2.8348753,1.9937215 2.6990847,1.9973852 2.4841261,2.1284473 2.3625988,2.2025434 2.2025434,2.3625988 2.1284473,2.4841261 1.9991005,2.6962718 1.9937171,2.8314998 1.9934738,5.8745763 l -2.535e-4,3.1694915 5.5254238,0 5.5254239,0 0,-3.1042786 z"
     id="path3001"
     inkscape:connector-curvature="0" />
  <path
     style="fill:#000000"
     d="m 11.010169,15.299721 0,-0.659601 0.557826,-0.560738 0.557825,-0.560738 -0.557825,-0.560738 -0.557826,-0.560738 0,-0.693499 0,-0.6935 0.656389,0 0.656388,0 0.555667,0.542373 c 0.305617,0.298305 0.582992,0.542373 0.616389,0.542373 0.0334,0 0.303358,-0.244068 0.599913,-0.542373 l 0.539192,-0.542373 0.662608,0 0.662607,0 0,0.736768 0,0.736767 -0.552153,0.527524 -0.552153,0.527524 0.552153,0.541155 0.552153,0.541155 0,0.66913 0,0.66913 -0.696612,0 -0.696612,0 -0.505081,-0.508475 c -0.277795,-0.279661 -0.537117,-0.508474 -0.576271,-0.508474 -0.03915,0 -0.298477,0.228813 -0.576271,0.508474 l -0.505081,0.508475 -0.696612,0 -0.696613,0 0,-0.659601 z"
     id="path3003"
     inkscape:connector-curvature="0" />
</svg>
